<svg width="439" height="481" viewBox="0 0 439 481" fill="none" xmlns="http://www.w3.org/2000/svg">
<path d="M4.75779 33C6.75775 23.2309 17.7578 0 17.7578 0H29L438.758 1.05882V481L427.258 480L415.758 478L403.758 475.5L391.758 471.5L380.258 467L367.758 461L355.758 454C355.758 454 341.258 444 339.758 442.5C338.258 441 329.258 433 329.258 433L320.758 424L313.758 415L308.258 406.5L303.258 397.5L298.346 388L295.258 380.5L291.258 371.5L288.758 363L286.758 356L284.008 346.5L281.258 338.5L276.258 326L270.758 311.5C270.758 311.5 259.758 291.5 253.758 286C247.758 280.5 241.258 273.5 230.758 268.5C220.258 263.5 219.758 262.9 211.258 259.5C202.758 256.1 188.5 253.059 188.5 253.059C182.5 252.059 166.016 248.421 151.758 246C137.5 243.579 128 242.059 113.5 237.059L105.129 233.529L96.7579 230L83.2578 223L72.2578 215.5L62.7578 209L53.7578 200.5L44.2578 190.5L34.7578 178.5C34.7578 178.5 27.2578 168 24.2578 163C21.2578 158 17.2262 150.49 13.7578 143C10.2895 135.51 4.90286 120.441 2.75784 108C0.612815 95.5589 0 90.0589 0 81.5C0 72.9412 0.84734 65.4411 1.25784 56C1.66833 46.5588 2.75784 42.7691 4.75779 33Z" fill="#F8AA60" fill-opacity="0.2"/>
</svg>
